<svg version="1.1" preserveAspectRatio="none" xmlns="http://www.w3.org/2000/svg" width="500" height="500" viewBox="0 0 500 500"><rect width="100%" height="100%" fill="#FFFFFF" fill-opacity="1"/><svg viewBox="131.1688 132.8636 254.0654 210" width="333" height="275.2440906947581" x="83.5px" y="112.378px" xmlns="http://www.w3.org/2000/svg" xmlns:xlink="http://www.w3.org/1999/xlink" preserveAspectRatio="none"><defs></defs><style>.companyName {fill:#285380;fill-opacity:1;}.icon3 {fill:#E7A0AE;fill-opacity:1;}.icon3-str {stroke:#E7A0AE;stroke-opacity:1;}.shape {fill:#F9E9ED;fill-opacity:1;}</style><g opacity="1" transform="rotate(0 141.0569 132.8636)">
<svg width="234.2892" height="210" x="141.0569" y="132.8636" version="1.1" preserveAspectRatio="none" viewBox="5.976081848144531 15.80335807800293 188.02392578125 168.53155517578125">
  <g transform="matrix(1 0 0 1 0 0)" ><g><path d="M91.052 173.189C119.033 208.059 194 154.166 194 107.109 194 72.067 160 19 113.041 16 71.147 13.324 9.093 38.026 6.094 86.084S58 132 91.052 173.189z" data-color="1" class="shape"></path></g></g>
</svg>
</g><g opacity="1" transform="rotate(0 131.1688 168.8636)">
<svg width="254.0654" height="140" x="131.1688" y="168.8636" version="1.1" preserveAspectRatio="none" viewBox="-1.4 -31.8 132.76000000000002 73.16">
  <g transform="matrix(1 0 0 1 0 0)" class="companyName"><path id="id-D6z1nYkh11" d="M17.72-28.20Q23.32-28.20 25.68-28.32L25.68-28.32Q24.68-25.48 24.04-23.20L24.04-23.20Q23.64-21.72 23.28-19.92L23.28-19.92L22.36-19.92Q22.80-22.48 22.80-23.92L22.80-23.92Q22.80-25.84 21.80-26.62Q20.80-27.40 18.20-27.40L18.20-27.40L16.08-27.40Q14.64-27.40 13.94-27.18Q13.24-26.96 12.80-26.28Q12.36-25.60 11.96-24.08L11.96-24.08L9.32-14.24L12.24-14.24Q14.28-14.24 15.28-15.46Q16.28-16.68 16.74-17.92Q17.20-19.16 17.36-19.52L17.36-19.52L18.28-19.52Q17.44-16.88 16.88-14.76L16.88-14.76L16.64-13.84Q16-11.20 15.36-8.16L15.36-8.16L14.44-8.16L14.56-9.04Q14.76-10.12 14.76-10.92L14.76-10.92Q14.76-12.12 14.16-12.78Q13.56-13.44 12.04-13.44L12.04-13.44L9.12-13.44L6.64-4.24Q6.32-3.04 6.32-2.48L6.32-2.48Q6.32-1.52 7.06-1.20Q7.80-0.88 9.76-0.80L9.76-0.80L9.56 0Q7.48-0.12 3.68-0.12L3.68-0.12Q0.28-0.12-1.40 0L-1.40 0L-1.20-0.80Q0.24-0.88 0.94-1.12Q1.64-1.36 2.08-2.04Q2.52-2.72 2.92-4.24L2.92-4.24L8.24-24.08Q8.60-25.36 8.60-26.04L8.60-26.04Q8.60-26.88 8.02-27.16Q7.44-27.44 5.92-27.52L5.92-27.52L6.12-28.32Q10.04-28.20 17.72-28.20L17.72-28.20Z M38.68-5.04L39.16-6.52L39.92-6.52L38.92-3.60Q38.12-1.40 36.88-0.42Q35.64 0.56 34.32 0.56L34.32 0.56Q33.56 0.56 33 0.28Q32.44 0 32.12-0.48L32.12-0.48Q31.76-1.08 31.76-1.88L31.76-1.88Q31.76-2.72 32.04-3.76Q32.32-4.80 32.40-5.08L32.40-5.08L33.12-7.96Q31.20-3.48 29.22-1.46Q27.24 0.56 25.08 0.56L25.08 0.56Q23.24 0.56 22.28-0.76Q21.32-2.08 21.32-4.28L21.32-4.28Q21.32-7.52 23.04-11.52Q24.76-15.52 27.52-18.32Q30.28-21.12 33.12-21.12L33.12-21.12Q34.20-21.12 34.88-20.32Q35.56-19.52 35.68-18.08L35.68-18.08L36.32-20.56Q38.52-20.64 40-21.12L40-21.12L35-3.44Q34.96-3.28 34.84-2.82Q34.72-2.36 34.72-1.96L34.72-1.96Q34.72-0.96 35.60-0.96L35.60-0.96Q37.36-0.96 38.68-5.04L38.68-5.04ZM26.24-0.72Q27.36-0.72 28.92-2.44Q30.48-4.16 31.98-7.02Q33.48-9.88 34.44-13.12L34.44-13.12L35.16-15.96Q35.20-16.28 35.20-16.84L35.20-16.84Q35.20-18.48 34.62-19.42Q34.04-20.36 33-20.36L33-20.36Q31.28-20.36 29.36-17.70Q27.44-15.04 26.14-11.14Q24.84-7.24 24.84-3.80L24.84-3.80Q24.84-2.16 25.20-1.44Q25.56-0.72 26.24-0.72L26.24-0.72Z M44.24-0.60Q44.64-0.40 45.02-0.32Q45.40-0.24 46.08-0.24L46.08-0.24Q47.88-0.24 49-1.32Q50.12-2.40 50.12-4.36L50.12-4.36Q50.12-5.64 49.64-6.86Q49.16-8.08 48.04-9.64L48.04-9.64Q46.68-11.48 46.06-12.66Q45.44-13.84 45.44-15.44L45.44-15.44Q45.44-17.08 46.28-18.38Q47.12-19.68 48.54-20.40Q49.96-21.12 51.64-21.12L51.64-21.12Q53.72-21.12 55.12-20.34Q56.52-19.56 56.52-17.64L56.52-17.64Q56.52-16.92 56.06-16.24Q55.60-15.56 54.68-15.56L54.68-15.56Q54-15.56 53.54-16.04Q53.08-16.52 53.08-17.24L53.08-17.24Q53.08-18.52 54.20-19.92L54.20-19.92Q53.44-20.40 52.20-20.40L52.20-20.40Q50.68-20.40 49.70-19.38Q48.72-18.36 48.72-16.60L48.72-16.60Q48.72-15.56 49.08-14.82Q49.44-14.08 50.40-12.64L50.40-12.64L51.12-11.60Q52.32-9.76 52.90-8.44Q53.48-7.12 53.48-5.72L53.48-5.72Q53.48-3.92 52.54-2.48Q51.60-1.04 50.02-0.24Q48.44 0.56 46.60 0.56L46.60 0.56Q44.32 0.56 42.76-0.42Q41.20-1.40 41.20-3.40L41.20-3.40Q41.20-4.08 41.58-4.64Q41.96-5.20 42.76-5.20L42.76-5.20Q43.64-5.20 44.08-4.48Q44.52-3.76 44.52-2.68L44.52-2.68Q44.52-2 44.24-0.60L44.24-0.60Z M75.80-6.48L76.56-6.48L75.56-3.56Q74.12 0.56 70.72 0.56L70.72 0.56Q67.92 0.56 67.92-1.92L67.92-1.92Q67.92-3.12 68.56-5.04L68.56-5.04L72.36-16.48Q72.76-17.60 72.76-18.48L72.76-18.48Q72.76-19.84 71.48-19.84L71.48-19.84Q70-19.84 68.30-17.98Q66.60-16.12 64.88-12.76Q63.16-9.40 61.68-4.96L61.68-4.96L60.24 0L56.76 0L64.68-26.68Q64.88-27.36 64.88-27.76L64.88-27.76Q64.88-28.56 64.24-28.94Q63.60-29.32 62.12-29.32L62.12-29.32L62.36-30.16Q66.52-30.20 69.56-31.80L69.56-31.80L63.76-11.96Q65.92-16.84 68.08-18.98Q70.24-21.12 72.80-21.12L72.80-21.12Q76.04-21.12 76.04-18.08L76.04-18.08Q76.04-16.80 75.44-15.08L75.44-15.08L71.56-3.40Q71.24-2.44 71.24-1.88L71.24-1.88Q71.24-0.92 72.20-0.92L72.20-0.92Q73-0.92 73.74-1.82Q74.48-2.72 75.28-5L75.28-5L75.80-6.48Z M86.08-27.32Q86.08-28.52 86.98-29.46Q87.88-30.40 89.04-30.40L89.04-30.40Q89.96-30.40 90.52-29.80Q91.08-29.20 91.08-28.32L91.08-28.32Q91.08-27.12 90.16-26.20Q89.24-25.28 88.08-25.28L88.08-25.28Q87.20-25.28 86.64-25.86Q86.08-26.44 86.08-27.32L86.08-27.32ZM84.88-17.16Q85.20-18.12 85.20-18.64L85.20-18.64Q85.20-19.64 84.32-19.64L84.32-19.64Q83.40-19.64 82.68-18.68Q81.96-17.72 81.16-15.56L81.16-15.56L80.60-14.08L79.84-14.08L80.88-17Q81.68-19.28 83.02-20.20Q84.36-21.12 85.84-21.12L85.84-21.12Q88.48-21.12 88.48-18.60L88.48-18.60Q88.48-17.28 87.84-15.52L87.84-15.52L83.56-3.40Q83.24-2.44 83.24-1.92L83.24-1.92Q83.24-0.92 84.20-0.92L84.20-0.92Q85.04-0.92 85.76-1.84Q86.48-2.76 87.32-5L87.32-5L87.88-6.48L88.64-6.48L87.60-3.56Q86.80-1.36 85.50-0.40Q84.20 0.56 82.68 0.56L82.68 0.56Q79.88 0.56 79.88-1.88L79.88-1.88Q79.88-3.04 80.60-5.04L80.60-5.04L84.88-17.16Z M91.48-5.72Q91.48-8.88 92.88-12.50Q94.28-16.12 96.92-18.62Q99.56-21.12 103.04-21.12L103.04-21.12Q105.60-21.12 107.06-19.54Q108.52-17.96 108.52-14.84L108.52-14.84Q108.52-11.68 107.12-8.06Q105.72-4.44 103.08-1.94Q100.44 0.56 96.96 0.56L96.96 0.56Q94.40 0.56 92.94-1.02Q91.48-2.60 91.48-5.72L91.48-5.72ZM102.80-20.32Q100.76-20.32 98.94-17.72Q97.12-15.12 96.02-11.22Q94.92-7.32 94.92-3.72L94.92-3.72Q94.92-1.92 95.48-1.08Q96.04-0.24 97.20-0.24L97.20-0.24Q99.24-0.24 101.06-2.84Q102.88-5.44 103.98-9.34Q105.08-13.24 105.08-16.84L105.08-16.84Q105.08-18.64 104.52-19.48Q103.96-20.32 102.80-20.32L102.80-20.32Z M130.60-6.48L131.36-6.48L130.36-3.56Q128.92 0.56 125.52 0.56L125.52 0.56Q123.72 0.56 123-0.60L123-0.60Q122.68-1.08 122.68-1.92L122.68-1.92Q122.68-3 123.36-5.04L123.36-5.04L127.16-16.48Q127.56-17.80 127.56-18.44L127.56-18.44Q127.56-19.84 126.28-19.84L126.28-19.84Q124.76-19.84 122.82-17.62Q120.88-15.40 119-11.52Q117.12-7.64 115.76-2.92L115.76-2.92L115.04 0L111.56 0L116.36-17.16Q116.64-18.20 116.64-18.64L116.64-18.64Q116.64-19.64 115.76-19.64L115.76-19.64Q114.88-19.64 114.20-18.76Q113.52-17.88 112.68-15.56L112.68-15.56L112.16-14.08L111.40-14.08L112.40-17Q113.84-21.12 117.16-21.12L117.16-21.12Q118.44-21.12 118.98-20.50Q119.52-19.88 119.52-18.76L119.52-18.76Q119.52-17.68 118.96-15.52L118.96-15.52L117.56-10.04Q120.12-16.08 122.46-18.60Q124.80-21.12 127.60-21.12L127.60-21.12Q130.84-21.12 130.84-18.12L130.84-18.12Q130.84-16.80 130.24-15.08L130.24-15.08L126.36-3.40Q126.04-2.44 126.04-1.88L126.04-1.88Q126.04-0.92 127-0.92L127-0.92Q127.80-0.92 128.54-1.82Q129.28-2.72 130.08-5L130.08-5L130.60-6.48Z M53.12 12.60Q56.56 12.60 58.28 12.48L58.28 12.48L58.08 13.28Q56.60 13.36 55.90 13.60Q55.20 13.84 54.78 14.52Q54.36 15.20 53.96 16.72L53.96 16.72L48.68 36.56Q48.32 38.08 48.32 38.52L48.32 38.52Q48.32 39.36 48.90 39.64Q49.48 39.92 51.04 40L51.04 40L50.88 40.80Q49.20 40.68 45.76 40.68L45.76 40.68Q42.56 40.68 40.68 40.80L40.68 40.80L40.84 40Q42.28 39.92 43.00 39.68Q43.72 39.44 44.14 38.76Q44.56 38.08 44.96 36.56L44.96 36.56L47.52 26.96L34.68 26.96L32.12 36.56Q31.76 38.08 31.76 38.52L31.76 38.52Q31.76 39.36 32.34 39.64Q32.92 39.92 34.48 40L34.48 40L34.32 40.80Q32.48 40.68 29.24 40.68L29.24 40.68Q25.88 40.68 24.16 40.80L24.16 40.80L24.36 40Q25.76 39.92 26.46 39.68Q27.16 39.44 27.58 38.74Q28.00 38.04 28.40 36.56L28.40 36.56L33.68 16.72Q34.00 15.36 34.00 14.80L34.00 14.80Q34.00 13.92 33.42 13.64Q32.84 13.36 31.32 13.28L31.32 13.28L31.52 12.48Q33.16 12.60 36.60 12.60L36.60 12.60Q39.80 12.60 41.72 12.48L41.72 12.48L41.52 13.28Q40.04 13.36 39.34 13.60Q38.64 13.84 38.22 14.52Q37.80 15.20 37.40 16.72L37.40 16.72L34.88 26.16L47.72 26.16L50.24 16.72Q50.60 15.44 50.60 14.80L50.60 14.80Q50.60 13.92 50.00 13.64Q49.40 13.36 47.88 13.28L47.88 13.28L48.08 12.48Q49.88 12.60 53.12 12.60L53.12 12.60Z M72.36 35.76L72.84 34.28L73.60 34.28L72.60 37.20Q71.80 39.40 70.56 40.38Q69.32 41.36 68 41.36L68 41.36Q67.24 41.36 66.68 41.08Q66.12 40.80 65.80 40.32L65.80 40.32Q65.44 39.72 65.44 38.92L65.44 38.92Q65.44 38.08 65.72 37.04Q66 36 66.08 35.72L66.08 35.72L66.80 32.84Q64.88 37.32 62.90 39.34Q60.92 41.36 58.76 41.36L58.76 41.36Q56.92 41.36 55.96 40.04Q55 38.72 55 36.52L55 36.52Q55 33.28 56.72 29.28Q58.44 25.28 61.20 22.48Q63.96 19.68 66.80 19.68L66.80 19.68Q67.88 19.68 68.56 20.48Q69.24 21.28 69.36 22.72L69.36 22.72L70 20.24Q72.20 20.16 73.68 19.68L73.68 19.68L68.68 37.36Q68.64 37.52 68.52 37.98Q68.40 38.44 68.40 38.84L68.40 38.84Q68.40 39.84 69.28 39.84L69.28 39.84Q71.04 39.84 72.36 35.76L72.36 35.76ZM59.92 40.08Q61.04 40.08 62.60 38.36Q64.16 36.64 65.66 33.78Q67.16 30.92 68.12 27.68L68.12 27.68L68.84 24.84Q68.88 24.52 68.88 23.96L68.88 23.96Q68.88 22.32 68.30 21.38Q67.72 20.44 66.68 20.44L66.68 20.44Q64.96 20.44 63.04 23.10Q61.12 25.76 59.82 29.66Q58.52 33.56 58.52 37L58.52 37Q58.52 38.64 58.88 39.36Q59.24 40.08 59.92 40.08L59.92 40.08Z M83.08 13.48Q83.08 12.28 83.98 11.34Q84.88 10.40 86.04 10.40L86.04 10.40Q86.96 10.40 87.52 11.00Q88.08 11.60 88.08 12.48L88.08 12.48Q88.08 13.68 87.16 14.60Q86.24 15.52 85.08 15.52L85.08 15.52Q84.20 15.52 83.64 14.94Q83.08 14.36 83.08 13.48L83.08 13.48ZM81.88 23.64Q82.20 22.68 82.20 22.16L82.20 22.16Q82.20 21.16 81.32 21.16L81.32 21.16Q80.40 21.16 79.68 22.12Q78.96 23.08 78.16 25.24L78.16 25.24L77.60 26.72L76.84 26.72L77.88 23.80Q78.68 21.52 80.02 20.60Q81.36 19.68 82.84 19.68L82.84 19.68Q85.48 19.68 85.48 22.20L85.48 22.20Q85.48 23.52 84.84 25.28L84.84 25.28L80.56 37.40Q80.24 38.36 80.24 38.88L80.24 38.88Q80.24 39.88 81.20 39.88L81.20 39.88Q82.04 39.88 82.76 38.96Q83.48 38.04 84.32 35.80L84.32 35.80L84.88 34.32L85.64 34.32L84.60 37.24Q83.80 39.44 82.50 40.40Q81.20 41.36 79.68 41.36L79.68 41.36Q76.88 41.36 76.88 38.92L76.88 38.92Q76.88 37.76 77.60 35.76L77.60 35.76L81.88 23.64Z M103.44 19.68Q104.52 19.68 105.16 20.32Q105.80 20.96 105.80 21.96L105.80 21.96Q105.80 23.16 104.96 24.00Q104.12 24.84 103.00 24.84L103.00 24.84Q102.28 24.84 101.84 24.46Q101.40 24.08 101.40 23.40L101.40 23.40Q101.40 22.48 101.88 21.84Q102.36 21.20 103.20 20.84L103.20 20.84Q103.04 20.68 102.76 20.68L102.76 20.68Q100.60 20.68 98.06 25.34Q95.52 30.00 93.28 37.64L93.28 37.64L92.48 40.80L89.00 40.80L93.80 23.64Q94.08 22.76 94.08 22.08L94.08 22.08Q94.08 21.16 93.24 21.16L93.24 21.16Q92.36 21.16 91.62 22.10Q90.88 23.04 90.12 25.24L90.12 25.24L89.60 26.72L88.84 26.72L89.84 23.80Q91.28 19.68 94.68 19.68L94.68 19.68Q96.96 19.68 96.96 22.00L96.96 22.00Q96.96 23.12 96.40 25.28L96.40 25.28L95.12 30.32Q97.28 24.52 99.18 22.10Q101.08 19.68 103.44 19.68L103.44 19.68Z"/></g>
</svg>
</g></svg></svg>